<svg width="510" height="510" viewBox="0 0 510 510" fill="none" xmlns="http://www.w3.org/2000/svg">
<path d="M161.25 130C57.0833 213.333 46.6667 327.917 130 473.75M348.75 380C452.917 296.667 463.333 184.326 380 38.4929M255 5C188.696 5 125.107 31.3392 78.2233 78.2233C31.3392 125.107 5 188.696 5 255C5 321.304 31.3392 384.893 78.2233 431.777C125.107 478.661 188.696 505 255 505C321.304 505 384.893 478.661 431.777 431.777C478.661 384.893 505 321.304 505 255C505 188.696 478.661 125.107 431.777 78.2233C384.893 31.3392 321.304 5 255 5ZM255 98.75C213.56 98.75 173.817 115.212 144.515 144.515C115.212 173.817 98.75 213.56 98.75 255C98.75 296.44 115.212 336.183 144.515 365.485C173.817 394.788 213.56 411.25 255 411.25C296.44 411.25 336.183 394.788 365.485 365.485C394.788 336.183 411.25 296.44 411.25 255C411.25 213.56 394.788 173.817 365.485 144.515C336.183 115.212 296.44 98.75 255 98.75Z" stroke="white" stroke-width="10" stroke-linejoin="round"/>
</svg>
